P3
319 6
255
0 0 0 255 255 255 255 255 255 0 0 0 0 0 0 255 255 255 255 255 255 255 255 255 0 0 0 0 0 0 0 0 0 255 255 255 255 255 255 0 0 0 0 0 0 255 255 255 255 255 255 255 255 255 0 0 0 0 0 0 255 255 255 255 255 255 255 255 255 0 0 0 255 255 255 255 255 255 255 255 255 0 0 0 0 0 0 255 255 255 255 255 255 0 0 0 0 0 0 255 255 255 0 0 0 0 0 0 255 255 255 0 0 0 0 0 0 255 255 255 0 0 0 255 255 255 255 255 255 255 255 255 0 0 0 0 0 0 255 255 255 0 0 0 0 0 0 255 255 255 0 0 0 255 255 255 0 0 0 0 0 0 0 0 0 255 255 255 0 0 0 0 0 0 0 0 0 255 255 255 0 0 0 255 255 255 0 0 0 0 0 0 0 0 0 255 255 255 0 0 0 0 0 0 255 255 255 255 255 255 0 0 0 0 0 0 255 255 255 255 255 255 255 255 255 0 0 0 0 0 0 0 0 0 255 255 255 255 255 255 0 0 0 0 0 0 255 255 255 255 255 255 255 255 255 0 0 0 0 0 0 0 0 0 255 255 255 255 255 255 255 255 255 0 0 0 255 255 255 255 255 255 255 255 255 0 0 0 255 255 255 0 0 0 0 0 0 255 255 255 0 0 0 255 255 255 0 0 0 0 0 0 0 0 0 255 255 255 0 0 0 255 255 255 0 0 0 0 0 0 0 0 0 255 255 255 0 0 0 0 0 0 0 0 0 255 255 255 0 0 0 255 255 255 0 0 0 255 255 255 0 0 0 255 255 255 0 0 0 255 255 255 255 255 255 255 255 255 0 0 0 0 0 0 0 0 0 0 0 0 0 0 0 0 0 0 0 0 0 0 0 0 0 0 0 0 0 0 255 255 255 0 0 0 0 0 0 0 0 0 255 255 255 255 255 255 0 0 0 0 0 0 0 0 0 0 0 0 255 255 255 0 0 0 0 0 0 0 0 0 255 255 255 255 255 255 0 0 0 0 0 0 0 0 0 255 255 255 255 255 255 0 0 0 0 0 0 255 255 255 255 255 255 0 0 0 0 0 0 0 0 0 255 255 255 255 255 255 0 0 0 0 0 0 255 255 255 0 0 0 255 255 255 0 0 0 0 0 0 0 0 0 255 255 255 0 0 0 255 255 255 255 255 255 255 255 255 0 0 0 0 0 0 255 255 255 0 0 0 0 0 0 255 255 255 0 0 0 255 255 255 0 0 0 0 0 0 0 0 0 255 255 255 0 0 0 0 0 0 0 0 0 255 255 255 0 0 0 255 255 255 255 255 255 0 0 0 0 0 0 0 0 0 0 0 0 0 0 0 255 255 255 0 0 0 0 0 0 0 0 0 255 255 255 255 255 255 0 0 0 0 0 0 0 0 0 0 0 0 255 255 255 0 0 0 0 0 0 0 0 0 255 255 255 255 255 255 0 0 0 0 0 0 0 0 0 0 0 0 255 255 255 255 255 255 0 0 0 0 0 0 255 255 255 255 255 255 255 255 255 0 0 0 255 255 255 0 0 0 255 255 255 0 0 0 0 0 0 0 0 0 0 0 0 255 255 255 0 0 0 255 255 255 
0 0 0 255 255 255 0 0 0 0 0 0 0 0 0 255 255 255 0 0 0 0 0 0 0 0 0 255 255 255 0 0 0 255 255 255 0 0 0 255 255 255 0 0 0 255 255 255 0 0 0 255 255 255 255 255 255 255 255 255 0 0 0 0 0 0 0 0 0 0 0 0 0 0 0 0 0 0 0 0 0 0 0 0 0 0 0 0 0 0 0 0 0 0 0 0 0 0 0 0 0 0 0 0 0 0 0 0 0 0 0 0 0 0 0 0 0 0 0 0 0 0 0 0 0 0 0 0 0 0 0 0 0 0 0 0 0 0 0 0 0 0 0 0 0 0 0 0 0 0 0 0 0 0 0 0 0 0 0 0 0 0 0 0 0 0 0 0 0 0 0 0 0 0 0 0 0 0 0 0 0 0 0 0 0 0 0 0 0 0 0 0 0 0 0 0 0 0 0 0 0 0 0 0 0 0 0 0 0 0 0 0 0 0 0 0 0 0 0 0 0 0 0 0 0 0 0 0 0 0 0 0 0 0 
255 255 255 0 0 0 0 0 0 255 255 255 0 0 0 255 255 255 0 0 0 0 0 0 255 255 255 0 0 0 255 255 255 0 0 0 0 0 0 255 255 255 0 0 0 255 255 255 0 0 0 0 0 0 255 255 255 0 0 0 255 255 255 0 0 0 0 0 0 0 0 0 255 255 255 0 0 0 0 0 0 0 0 0 255 255 255 0 0 0 0 0 0 255 255 255 0 0 0 255 255 255 0 0 0 0 0 0 255 255 255 0 0 0 0 0 0 255 255 255 0 0 0 0 0 0 0 0 0 255 255 255 0 0 0 0 0 0 255 255 255 0 0 0 255 255 255 0 0 0 0 0 0 255 255 255 0 0 0 0 0 0 0 0 0 255 255 255 255 255 255 0 0 0 255 255 255 255 255 255 0 0 0 255 255 255 255 255 255 0 0 0 0 0 0 255 255 255 0 0 0 255 255 255 0 0 0 0 0 0 255 255 255 0 0 0 255 255 255 0 0 0 0 0 0 255 255 255 0 0 0 255 255 255 0 0 0 0 0 0 255 255 255 0 0 0 255 255 255 0 0 0 0 0 0 255 255 255 0 0 0 255 255 255 0 0 0 0 0 0 0 0 0 0 0 0 0 0 0 255 255 255 0 0 0 0 0 0 255 255 255 0 0 0 0 0 0 255 255 255 0 0 0 255 255 255 0 0 0 0 0 0 0 0 0 255 255 255 0 0 0 255 255 255 0 0 0 0 0 0 0 0 0 255 255 255 0 0 0 0 0 0 0 0 0 255 255 255 0 0 0 255 255 255 0 0 0 255 255 255 0 0 0 255 255 255 0 0 0 0 0 0 0 0 0 255 255 255 0 0 0 0 0 0 0 0 0 0 0 0 0 0 0 0 0 0 0 0 0 0 0 0 0 0 0 255 255 255 0 0 0 255 255 255 0 0 0 0 0 0 255 255 255 0 0 0 255 255 255 0 0 0 0 0 0 255 255 255 0 0 0 255 255 255 0 0 0 0 0 0 255 255 255 0 0 0 255 255 255 0 0 0 0 0 0 255 255 255 0 0 0 0 0 0 0 0 0 255 255 255 0 0 0 0 0 0 0 0 0 255 255 255 0 0 0 0 0 0 255 255 255 0 0 0 255 255 255 0 0 0 255 255 255 0 0 0 0 0 0 0 0 0 255 255 255 0 0 0 0 0 0 0 0 0 255 255 255 0 0 0 0 0 0 255 255 255 0 0 0 255 255 255 0 0 0 0 0 0 255 255 255 0 0 0 0 0 0 0 0 0 255 255 255 255 255 255 0 0 0 255 255 255 255 255 255 0 0 0 255 255 255 0 0 0 255 255 255 0 0 0 0 0 0 0 0 0 255 255 255 0 0 0 255 255 255 0 0 0 0 0 0 255 255 255 0 0 0 255 255 255 0 0 0 0 0 0 255 255 255 0 0 0 255 255 255 0 0 0 0 0 0 255 255 255 0 0 0 255 255 255 0 0 0 0 0 0 255 255 255 0 0 0 0 0 0 0 0 0 0 0 0 0 0 0 255 255 255 0 0 0 0 0 0 255 255 255 0 0 0 255 255 255 0 0 0 0 0 0 0 0 0 0 0 0 255 255 255 0 0 0 255 255 255 0 0 0 255 255 255 0 0 0 0 0 0 0 0 0 255 255 255 0 0 0 0 0 0 0 0 0 255 255 255 
0 0 0 255 255 255 0 0 0 255 255 255 0 0 0 255 255 255 0 0 0 0 0 0 0 0 0 255 255 255 0 0 0 0 0 0 0 0 0 0 0 0 0 0 0 0 0 0 0 0 0 0 0 0 0 0 0 0 0 0 0 0 0 0 0 0 0 0 0 0 0 0 0 0 0 0 0 0 0 0 0 0 0 0 0 0 0 0 0 0 0 0 0 0 0 0 0 0 0 0 0 0 0 0 0 0 0 0 0 0 0 0 0 0 0 0 0 0 0 0 0 0 0 0 0 0 0 0 0 0 0 0 0 0 0 0 0 0 0 0 0 0 0 0 0 0 0 0 0 0 0 0 0 0 0 0 0 0 0 0 0 0 0 0 0 0 0 0 0 0 0 0 0 0 0 0 0 0 0 0 0 0 0 0 0 0 0 0 0 0 0 0 0 0 0 0 0 0 0 0 0 0 0 0 
255 255 255 0 0 0 0 0 0 255 255 255 0 0 0 255 255 255 255 255 255 255 255 255 0 0 0 0 0 0 255 255 255 0 0 0 0 0 0 0 0 0 0 0 0 255 255 255 0 0 0 0 0 0 255 255 255 0 0 0 255 255 255 255 255 255 0 0 0 0 0 0 255 255 255 255 255 255 0 0 0 0 0 0 255 255 255 0 0 0 0 0 0 0 0 0 0 0 0 255 255 255 0 0 0 0 0 0 255 255 255 0 0 0 0 0 0 255 255 255 0 0 0 0 0 0 0 0 0 255 255 255 0 0 0 0 0 0 255 255 255 255 255 255 0 0 0 0 0 0 0 0 0 255 255 255 0 0 0 0 0 0 0 0 0 255 255 255 0 0 0 255 255 255 0 0 0 255 255 255 0 0 0 255 255 255 0 0 0 255 255 255 0 0 0 255 255 255 0 0 0 255 255 255 0 0 0 0 0 0 255 255 255 0 0 0 255 255 255 0 0 0 0 0 0 255 255 255 0 0 0 255 255 255 0 0 0 0 0 0 255 255 255 0 0 0 255 255 255 0 0 0 0 0 0 255 255 255 0 0 0 0 0 0 255 255 255 255 255 255 0 0 0 0 0 0 0 0 0 255 255 255 0 0 0 0 0 0 255 255 255 0 0 0 0 0 0 255 255 255 0 0 0 255 255 255 0 0 0 0 0 0 0 0 0 255 255 255 0 0 0 255 255 255 0 0 0 255 255 255 0 0 0 255 255 255 0 0 0 0 0 0 0 0 0 0 0 0 255 255 255 0 0 0 0 0 0 255 255 255 0 0 0 255 255 255 0 0 0 0 0 0 255 255 255 0 0 0 0 0 0 0 0 0 0 0 0 0 0 0 0 0 0 0 0 0 0 0 0 0 0 0 0 0 0 255 255 255 0 0 0 255 255 255 0 0 0 0 0 0 255 255 255 255 255 255 0 0 0 0 0 0 0 0 0 255 255 255 0 0 0 0 0 0 0 0 0 0 0 0 255 255 255 0 0 0 255 255 255 0 0 0 0 0 0 255 255 255 255 255 255 0 0 0 0 0 0 255 255 255 255 255 255 0 0 0 0 0 0 255 255 255 0 0 0 0 0 0 0 0 0 0 0 0 255 255 255 0 0 0 255 255 255 0 0 0 0 0 0 0 0 0 255 255 255 0 0 0 0 0 0 0 0 0 255 255 255 0 0 0 0 0 0 255 255 255 255 255 255 0 0 0 0 0 0 0 0 0 255 255 255 0 0 0 0 0 0 0 0 0 255 255 255 0 0 0 255 255 255 0 0 0 255 255 255 0 0 0 255 255 255 0 0 0 255 255 255 0 0 0 0 0 0 0 0 0 255 255 255 0 0 0 255 255 255 0 0 0 0 0 0 255 255 255 0 0 0 255 255 255 0 0 0 0 0 0 255 255 255 0 0 0 255 255 255 0 0 0 0 0 0 255 255 255 0 0 0 255 255 255 0 0 0 0 0 0 0 0 0 255 255 255 0 0 0 0 0 0 0 0 0 0 0 0 255 255 255 0 0 0 0 0 0 255 255 255 0 0 0 255 255 255 0 0 0 0 0 0 0 0 0 0 0 0 255 255 255 0 0 0 255 255 255 0 0 0 255 255 255 0 0 0 255 255 255 0 0 0 255 255 255 0 0 0 0 0 0 0 0 0 0 0 0 255 255 255 
0 0 0 0 0 0 255 255 255 0 0 0 255 255 255 0 0 0 0 0 0 255 255 255 0 0 0 0 0 0 0 0 0 0 0 0 0 0 0 0 0 0 0 0 0 0 0 0 0 0 0 0 0 0 0 0 0 0 0 0 0 0 0 0 0 0 0 0 0 0 0 0 0 0 0 0 0 0 0 0 0 0 0 0 0 0 0 0 0 0 0 0 0 0 0 0 0 0 0 0 0 0 0 0 0 0 0 0 0 0 0 0 0 0 0 0 0 0 0 0 0 0 0 0 0 0 0 0 0 0 0 0 0 0 0 0 0 0 0 0 0 0 0 0 0 0 0 0 0 0 0 0 0 0 0 0 0 0 0 0 0 0 0 0 0 0 0 0 0 0 0 0 0 0 0 0 0 0 0 0 0 0 0 0 0 0 0 0 0 0 0 0 0 0 0 0 0 0 0 0 0 
255 255 255 255 255 255 255 255 255 255 255 255 0 0 0 255 255 255 0 0 0 0 0 0 255 255 255 0 0 0 255 255 255 0 0 0 0 0 0 0 0 0 0 0 0 255 255 255 0 0 0 0 0 0 255 255 255 0 0 0 255 255 255 0 0 0 0 0 0 0 0 0 255 255 255 0 0 0 0 0 0 0 0 0 255 255 255 0 0 0 255 255 255 255 255 255 0 0 0 255 255 255 255 255 255 255 255 255 255 255 255 0 0 0 0 0 0 255 255 255 0 0 0 0 0 0 0 0 0 255 255 255 0 0 0 0 0 0 255 255 255 255 255 255 0 0 0 0 0 0 0 0 0 255 255 255 0 0 0 0 0 0 0 0 0 255 255 255 0 0 0 0 0 0 0 0 0 255 255 255 0 0 0 255 255 255 0 0 0 0 0 0 255 255 255 255 255 255 0 0 0 255 255 255 0 0 0 0 0 0 255 255 255 0 0 0 255 255 255 255 255 255 255 255 255 0 0 0 0 0 0 255 255 255 0 0 0 0 0 0 255 255 255 0 0 0 255 255 255 255 255 255 255 255 255 0 0 0 0 0 0 0 0 0 0 0 0 0 0 0 255 255 255 0 0 0 0 0 0 255 255 255 0 0 0 0 0 0 255 255 255 0 0 0 0 0 0 255 255 255 0 0 0 255 255 255 0 0 0 0 0 0 0 0 0 255 255 255 0 0 0 255 255 255 0 0 0 255 255 255 0 0 0 255 255 255 0 0 0 0 0 0 0 0 0 255 255 255 0 0 0 255 255 255 0 0 0 0 0 0 255 255 255 0 0 0 0 0 0 255 255 255 0 0 0 0 0 0 0 0 0 0 0 0 0 0 0 0 0 0 0 0 0 0 0 0 0 0 0 0 0 0 0 0 0 255 255 255 255 255 255 255 255 255 0 0 0 0 0 0 255 255 255 0 0 0 255 255 255 0 0 0 0 0 0 255 255 255 0 0 0 0 0 0 0 0 0 0 0 0 255 255 255 0 0 0 255 255 255 0 0 0 0 0 0 255 255 255 0 0 0 0 0 0 0 0 0 255 255 255 0 0 0 0 0 0 0 0 0 255 255 255 0 0 0 255 255 255 255 255 255 0 0 0 255 255 255 255 255 255 255 255 255 0 0 0 0 0 0 0 0 0 255 255 255 0 0 0 0 0 0 0 0 0 255 255 255 0 0 0 0 0 0 255 255 255 255 255 255 0 0 0 0 0 0 0 0 0 255 255 255 0 0 0 0 0 0 0 0 0 255 255 255 0 0 0 0 0 0 0 0 0 255 255 255 0 0 0 255 255 255 0 0 0 255 255 255 0 0 0 0 0 0 0 0 0 255 255 255 0 0 0 255 255 255 0 0 0 0 0 0 255 255 255 255 255 255 0 0 0 0 0 0 0 0 0 255 255 255 0 0 0 255 255 255 0 0 0 0 0 0 255 255 255 255 255 255 0 0 0 0 0 0 0 0 0 0 0 0 0 0 0 255 255 255 0 0 0 0 0 0 0 0 0 255 255 255 0 0 0 0 0 0 255 255 255 0 0 0 255 255 255 0 0 0 0 0 0 0 0 0 0 0 0 255 255 255 0 0 0 255 255 255 0 0 0 255 255 255 0 0 0 255 255 255 0 0 0 255 255 255 
0 0 0 0 0 0 0 0 0 255 255 255 0 0 0 255 255 255 0 0 0 0 0 0 255 255 255 0 0 0 0 0 0 255 255 255 0 0 0 0 0 0 0 0 0 0 0 0 0 0 0 0 0 0 0 0 0 0 0 0 0 0 0 0 0 0 0 0 0 0 0 0 0 0 0 0 0 0 0 0 0 0 0 0 0 0 0 0 0 0 0 0 0 0 0 0 0 0 0 0 0 0 0 0 0 0 0 0 0 0 0 0 0 0 0 0 0 0 0 0 0 0 0 0 0 0 0 0 0 0 0 0 0 0 0 0 0 0 0 0 0 0 0 0 0 0 0 0 0 0 0 0 0 0 0 0 0 0 0 0 0 0 0 0 0 0 0 0 0 0 0 0 0 0 0 0 0 0 0 0 0 0 0 0 0 0 0 0 0 0 0 0 0 0 0 0 0 0 0 0 0 0 0 0 0 0 0 0 0 0 0 0 0 0 0 0 
255 255 255 0 0 0 0 0 0 255 255 255 0 0 0 255 255 255 0 0 0 0 0 0 255 255 255 0 0 0 255 255 255 0 0 0 0 0 0 255 255 255 0 0 0 255 255 255 0 0 0 0 0 0 255 255 255 0 0 0 255 255 255 0 0 0 0 0 0 0 0 0 255 255 255 0 0 0 0 0 0 0 0 0 255 255 255 0 0 0 0 0 0 255 255 255 0 0 0 255 255 255 0 0 0 0 0 0 255 255 255 0 0 0 0 0 0 255 255 255 0 0 0 255 255 255 0 0 0 255 255 255 0 0 0 0 0 0 255 255 255 0 0 0 255 255 255 0 0 0 0 0 0 255 255 255 0 0 0 0 0 0 0 0 0 255 255 255 0 0 0 0 0 0 0 0 0 255 255 255 0 0 0 255 255 255 0 0 0 0 0 0 0 0 0 255 255 255 0 0 0 255 255 255 0 0 0 0 0 0 255 255 255 0 0 0 255 255 255 0 0 0 0 0 0 0 0 0 0 0 0 255 255 255 0 0 0 0 0 0 255 255 255 0 0 0 255 255 255 0 0 0 0 0 0 255 255 255 0 0 0 0 0 0 0 0 0 0 0 0 255 255 255 0 0 0 0 0 0 255 255 255 0 0 0 0 0 0 255 255 255 0 0 0 0 0 0 255 255 255 0 0 0 0 0 0 255 255 255 0 0 0 255 255 255 0 0 0 0 0 0 255 255 255 0 0 0 255 255 255 0 0 0 255 255 255 0 0 0 0 0 0 0 0 0 255 255 255 0 0 0 255 255 255 0 0 0 0 0 0 255 255 255 0 0 0 0 0 0 255 255 255 0 0 0 0 0 0 0 0 0 0 0 0 0 0 0 0 0 0 0 0 0 0 0 0 0 0 0 0 0 0 0 0 0 255 255 255 0 0 0 255 255 255 0 0 0 0 0 0 255 255 255 0 0 0 255 255 255 0 0 0 0 0 0 255 255 255 0 0 0 255 255 255 0 0 0 0 0 0 255 255 255 0 0 0 255 255 255 0 0 0 0 0 0 255 255 255 0 0 0 0 0 0 0 0 0 255 255 255 0 0 0 0 0 0 0 0 0 255 255 255 0 0 0 0 0 0 255 255 255 0 0 0 255 255 255 0 0 0 255 255 255 0 0 0 0 0 0 0 0 0 255 255 255 0 0 0 255 255 255 0 0 0 255 255 255 0 0 0 0 0 0 255 255 255 0 0 0 255 255 255 0 0 0 0 0 0 255 255 255 0 0 0 0 0 0 0 0 0 255 255 255 0 0 0 0 0 0 0 0 0 255 255 255 0 0 0 255 255 255 0 0 0 255 255 255 0 0 0 0 0 0 0 0 0 255 255 255 0 0 0 255 255 255 0 0 0 0 0 0 255 255 255 0 0 0 0 0 0 0 0 0 0 0 0 255 255 255 0 0 0 255 255 255 0 0 0 0 0 0 255 255 255 0 0 0 255 255 255 0 0 0 0 0 0 0 0 0 0 0 0 255 255 255 0 0 0 0 0 0 0 0 0 255 255 255 0 0 0 0 0 0 255 255 255 0 0 0 255 255 255 0 0 0 0 0 0 0 0 0 0 0 0 255 255 255 0 0 0 255 255 255 0 0 0 255 255 255 0 0 0 255 255 255 0 0 0 255 255 255 0 0 0 0 0 0 0 0 0 255 255 255 0 0 0 255 255 255 0 0 0 0 0 0 
255 255 255 0 0 0 0 0 0 255 255 255 0 0 0 0 0 0 0 0 0 0 0 0 0 0 0 0 0 0 0 0 0 0 0 0 0 0 0 0 0 0 0 0 0 0 0 0 0 0 0 0 0 0 0 0 0 0 0 0 0 0 0 0 0 0 0 0 0 0 0 0 0 0 0 0 0 0 0 0 0 0 0 0 0 0 0 0 0 0 0 0 0 0 0 0 0 0 0 0 0 0 0 0 0 0 0 0 0 0 0 0 0 0 0 0 0 0 0 0 0 0 0 0 0 0 0 0 0 0 0 0 0 0 0 0 0 0 0 0 0 0 0 0 0 0 0 0 0 0 0 0 0 0 0 0 0 0 0 0 0 0 0 0 0 0 0 0 0 0 0 0 0 0 0 0 0 0 0 0 0 0 0 0 0 0 0 0 0 0 0 0 
255 255 255 0 0 0 0 0 0 255 255 255 0 0 0 255 255 255 255 255 255 255 255 255 0 0 0 0 0 0 0 0 0 255 255 255 255 255 255 0 0 0 0 0 0 255 255 255 255 255 255 255 255 255 0 0 0 0 0 0 255 255 255 255 255 255 255 255 255 0 0 0 255 255 255 0 0 0 0 0 0 0 0 0 0 0 0 255 255 255 255 255 255 0 0 0 0 0 0 255 255 255 0 0 0 0 0 0 255 255 255 0 0 0 0 0 0 255 255 255 0 0 0 0 0 0 255 255 255 0 0 0 0 0 0 0 0 0 255 255 255 0 0 0 0 0 0 255 255 255 0 0 0 255 255 255 255 255 255 255 255 255 0 0 0 255 255 255 0 0 0 0 0 0 0 0 0 255 255 255 0 0 0 255 255 255 0 0 0 0 0 0 0 0 0 255 255 255 0 0 0 0 0 0 255 255 255 255 255 255 0 0 0 0 0 0 255 255 255 0 0 0 0 0 0 0 0 0 0 0 0 0 0 0 255 255 255 255 255 255 255 255 255 0 0 0 255 255 255 0 0 0 0 0 0 255 255 255 0 0 0 255 255 255 255 255 255 255 255 255 0 0 0 0 0 0 0 0 0 255 255 255 0 0 0 0 0 0 0 0 0 255 255 255 255 255 255 0 0 0 0 0 0 0 0 0 0 0 0 255 255 255 0 0 0 0 0 0 0 0 0 0 0 0 255 255 255 0 0 0 255 255 255 0 0 0 0 0 0 0 0 0 0 0 0 255 255 255 0 0 0 255 255 255 0 0 0 0 0 0 255 255 255 0 0 0 0 0 0 255 255 255 255 255 255 255 255 255 0 0 0 0 0 0 255 255 255 0 0 0 0 0 0 0 0 0 0 0 0 0 0 0 0 0 0 255 255 255 0 0 0 255 255 255 0 0 0 0 0 0 255 255 255 255 255 255 0 0 0 0 0 0 0 0 0 0 0 0 255 255 255 0 0 0 0 0 0 0 0 0 255 255 255 255 255 255 0 0 0 0 0 0 0 0 0 255 255 255 255 255 255 0 0 0 0 0 0 255 255 255 0 0 0 0 0 0 0 0 0 0 0 0 255 255 255 255 255 255 0 0 0 0 0 0 255 255 255 0 0 0 255 255 255 0 0 0 0 0 0 0 0 0 255 255 255 0 0 0 0 0 0 255 255 255 0 0 0 0 0 0 0 0 0 255 255 255 0 0 0 0 0 0 255 255 255 0 0 0 255 255 255 255 255 255 0 0 0 0 0 0 255 255 255 0 0 0 0 0 0 0 0 0 255 255 255 0 0 0 255 255 255 0 0 0 255 255 255 0 0 0 0 0 0 0 0 0 0 0 0 255 255 255 0 0 0 0 0 0 0 0 0 255 255 255 0 0 0 0 0 0 0 0 0 0 0 0 0 0 0 255 255 255 255 255 255 0 0 0 0 0 0 255 255 255 0 0 0 255 255 255 0 0 0 0 0 0 255 255 255 255 255 255 0 0 0 0 0 0 0 0 0 0 0 0 255 255 255 0 0 0 0 0 0 0 0 0 255 255 255 0 0 0 0 0 0 0 0 0 0 0 0 0 0 0 0 0 0 255 255 255 0 0 0 0 0 0 0 0 0 255 255 255 0 0 0 255 255 255 0 0 0 0 0 0 0 0 0 0 0 0 255 255 255 
0 0 0 255 255 255 0 0 0 0 0 0 255 255 255 0 0 0 0 0 0 255 255 255 255 255 255 255 255 255 0 0 0 0 0 0 0 0 0 0 0 0 0 0 0 0 0 0 0 0 0 0 0 0 0 0 0 0 0 0 0 0 0 0 0 0 0 0 0 0 0 0 0 0 0 0 0 0 0 0 0 0 0 0 0 0 0 0 0 0 0 0 0 0 0 0 0 0 0 0 0 0 0 0 0 0 0 0 0 0 0 0 0 0 0 0 0 0 0 0 0 0 0 0 0 0 0 0 0 0 0 0 0 0 0 0 0 0 0 0 0 0 0 0 0 0 0 0 0 0 0 0 0 0 0 0 0 0 0 0 0 0 0 0 0 0 0 0 0 0 0 0 0 0 0 0 0 0 0 0 0 0 0 0 0 0 0 0 0 0 0 0 0 0 0 0 0 0 0 0 0 0 0 0 
